<svg width="20" height="20" viewBox="0 0 20 20" fill="none" xmlns="http://www.w3.org/2000/svg">
<path fill-rule="evenodd" clip-rule="evenodd" d="M4.26745 15.5084C5.58937 16.4078 7.14315 16.8871 8.73223 16.8857C10.6279 16.8825 12.4535 16.1965 13.8931 14.9618L18.482 19.3063C18.6159 19.4305 18.7903 19.4995 18.9712 19.5C19.1179 19.4981 19.2605 19.4513 19.3807 19.3656C19.5008 19.2798 19.5929 19.1592 19.6449 19.0194C19.6969 18.8796 19.7064 18.727 19.6723 18.5816C19.6381 18.4362 19.5617 18.3046 19.4532 18.204L14.9197 13.905C16.1019 12.4441 16.7569 10.6031 16.7585 8.69287C16.7585 7.07218 16.2872 5.4879 15.4042 4.14044C14.5212 2.79298 13.2662 1.74288 11.798 1.12299C10.3297 0.503091 8.71422 0.341249 7.15577 0.657934C5.59733 0.974619 4.16599 1.7556 3.04281 2.90209C1.91964 4.04857 1.1551 5.50905 0.845913 7.09876C0.536723 8.68848 0.696771 10.336 1.30581 11.8329C1.91486 13.3299 2.94553 14.6089 4.26745 15.5084ZM5.02133 3.02808C6.1201 2.28074 7.41153 1.88256 8.73223 1.88393C10.5017 1.88576 12.198 2.60394 13.4486 3.88067C14.6991 5.15739 15.4016 6.88822 15.4016 8.69287C15.4016 10.0398 15.0098 11.3566 14.276 12.4764C13.5421 13.5963 12.499 14.469 11.2787 14.9842C10.0584 15.4993 8.71572 15.6337 7.4205 15.3705C6.12527 15.1072 4.93571 14.458 4.00231 13.5051C3.06891 12.5521 2.43361 11.3382 2.17678 10.017C1.91994 8.69572 2.05312 7.32645 2.55946 6.0824C3.0658 4.83835 3.92255 3.77542 5.02133 3.02808Z" fill="#131313"/>
</svg>
